<svg width="24" height="24" viewBox="0 0 24 24" fill="none" xmlns="http://www.w3.org/2000/svg">
<g clip-path="url(#clip0_25062_6660)">
<mask id="mask0_25062_6660" style="mask-type:luminance" maskUnits="userSpaceOnUse" x="0" y="0" width="24" height="24">
<path d="M24 0H0V24H24V0Z" fill="white"/>
</mask>
<g mask="url(#mask0_25062_6660)">
<path d="M8.17529 22.2919C9.07923 22.2919 9.81201 21.5591 9.81201 20.6552C9.81201 19.7512 9.07923 19.0184 8.17529 19.0184C7.27136 19.0184 6.53857 19.7512 6.53857 20.6552C6.53857 21.5591 7.27136 22.2919 8.17529 22.2919Z" fill="#1E2533"/>
<path d="M16.7271 22.2919C17.631 22.2919 18.3638 21.5591 18.3638 20.6552C18.3638 19.7512 17.631 19.0184 16.7271 19.0184C15.8231 19.0184 15.0903 19.7512 15.0903 20.6552C15.0903 21.5591 15.8231 22.2919 16.7271 22.2919Z" fill="#1E2533"/>
<path fill-rule="evenodd" clip-rule="evenodd" d="M1.63728 3.31368L3.41176 3.66858C4.2338 3.83298 4.68652 4.33226 4.76993 5.16641L4.80696 5.53674H19.0939C19.9383 5.53674 20.6304 5.86141 21.1702 6.51074C21.71 7.16007 21.9028 7.89982 21.7485 8.73001L20.4918 15.4933C20.3729 16.1328 20.0634 16.6605 19.5632 17.0763C19.063 17.4921 18.4877 17.7 17.8372 17.7H7.05977C6.36621 17.7 5.76231 17.4673 5.24806 17.0019C4.73382 16.5365 4.44219 15.9588 4.37317 15.2687L3.37688 5.30572C3.36216 5.15851 3.28226 5.0704 3.1372 5.04139L1.36272 4.6865C1.32334 4.67862 1.28473 4.6674 1.24728 4.65291C1.20983 4.63843 1.17389 4.62085 1.13946 4.60018C1.10504 4.57951 1.07263 4.55604 1.04224 4.5298C1.01185 4.50355 0.983924 4.4749 0.958466 4.44384C0.933007 4.41279 0.910388 4.37979 0.890609 4.34484C0.870829 4.30989 0.854181 4.27351 0.840663 4.2357C0.827144 4.19789 0.816955 4.1592 0.810095 4.11963C0.803235 4.08007 0.799805 4.04021 0.799805 4.00005C0.799805 3.95409 0.804288 3.90857 0.813255 3.86349C0.822222 3.81841 0.8355 3.77463 0.853089 3.73217C0.870678 3.68971 0.89224 3.64937 0.917776 3.61115C0.943312 3.57293 0.97233 3.53757 1.00483 3.50507C1.03733 3.47257 1.07269 3.44356 1.11091 3.41802C1.14912 3.39248 1.18946 3.37092 1.23193 3.35333C1.27439 3.33574 1.31816 3.32247 1.36324 3.3135C1.40832 3.30453 1.45384 3.30005 1.4998 3.30005C1.54601 3.30005 1.59197 3.30462 1.63728 3.31368ZM4.94696 6.93674L5.76623 15.1294C5.79946 15.4617 5.93987 15.7399 6.18747 15.9639C6.43507 16.188 6.72584 16.3 7.05977 16.3H17.8372C18.5577 16.3 18.9837 15.9459 19.1153 15.2375L20.3721 8.47424C20.4464 8.07452 20.3535 7.71834 20.0936 7.4057C19.8337 7.09306 19.5005 6.93674 19.0939 6.93674H4.94696Z" fill="#1E2533"/>
<path fill-rule="evenodd" clip-rule="evenodd" d="M20.7799 12.647C20.8429 12.5817 20.8914 12.5071 20.9254 12.4229C20.9594 12.3388 20.9764 12.2514 20.9764 12.1607C20.9764 12.1147 20.9719 12.0692 20.963 12.0241C20.954 11.9791 20.9407 11.9353 20.9231 11.8928C20.9055 11.8504 20.884 11.81 20.8584 11.7718C20.8329 11.7336 20.8039 11.6982 20.7714 11.6657C20.7389 11.6332 20.7035 11.6042 20.6653 11.5787C20.6271 11.5531 20.5868 11.5316 20.5443 11.514C20.5018 11.4964 20.4581 11.4831 20.413 11.4741C20.3679 11.4652 20.3224 11.4607 20.2764 11.4607C20.1815 11.4607 20.0903 11.4792 20.0029 11.5163C19.9155 11.5534 19.8389 11.6061 19.7729 11.6744C18.726 12.758 16.8016 13.3001 13.9998 13.3001C13.9538 13.3001 13.9083 13.3046 13.8632 13.3135C13.8182 13.3225 13.7744 13.3358 13.7319 13.3534C13.6895 13.3709 13.6491 13.3925 13.6109 13.418C13.5727 13.4436 13.5373 13.4726 13.5048 13.5051C13.4723 13.5376 13.4433 13.573 13.4178 13.6112C13.3922 13.6494 13.3707 13.6897 13.3531 13.7322C13.3355 13.7747 13.3222 13.8184 13.3133 13.8635C13.3043 13.9086 13.2998 13.9541 13.2998 14.0001C13.2998 14.046 13.3043 14.0916 13.3133 14.1366C13.3222 14.1817 13.3355 14.2255 13.3531 14.268C13.3707 14.3104 13.3922 14.3508 13.4178 14.389C13.4433 14.4272 13.4723 14.4625 13.5048 14.495C13.5373 14.5275 13.5727 14.5566 13.6109 14.5821C13.6491 14.6076 13.6895 14.6292 13.7319 14.6468C13.7744 14.6644 13.8182 14.6777 13.8632 14.6866C13.9083 14.6956 13.9538 14.7001 13.9998 14.7001C17.1979 14.7001 19.4579 14.0157 20.7799 12.647Z" fill="#1E2533"/>
</g>
</g>
<defs>
<clipPath id="clip0_25062_6660">
<rect width="24" height="24" fill="white"/>
</clipPath>
</defs>
</svg>
