<svg width="17" height="11" viewBox="0 0 17 11" fill="none" xmlns="http://www.w3.org/2000/svg">
<path d="M2 6.875C2.55228 6.875 3 7.33671 3 7.90625V9.96875C3 10.5383 2.55228 11 2 11H1C0.447715 11 0 10.5383 0 9.96875V7.90625C0 7.33671 0.447715 6.875 1 6.875H2ZM6.66699 4.8125C7.21913 4.81268 7.66699 5.27432 7.66699 5.84375V9.96875C7.66699 10.5382 7.21913 10.9998 6.66699 11H5.66699C5.11471 11 4.66699 10.5383 4.66699 9.96875V5.84375C4.66699 5.27421 5.11471 4.8125 5.66699 4.8125H6.66699ZM11.333 2.40625C11.8853 2.40625 12.333 2.86796 12.333 3.4375V9.96875C12.333 10.5383 11.8853 11 11.333 11H10.333C9.78087 10.9998 9.33301 10.5382 9.33301 9.96875V3.4375C9.33301 2.86807 9.78087 2.40643 10.333 2.40625H11.333ZM16 0C16.5523 0 17 0.461706 17 1.03125V9.96875C17 10.5383 16.5523 11 16 11H15C14.4477 11 14 10.5383 14 9.96875V1.03125C14 0.461706 14.4477 0 15 0H16Z" fill="black"/>
</svg>
